<svg width="24" height="24" viewBox="0 0 24 24" fill="none" xmlns="http://www.w3.org/2000/svg">
<g opacity="0.5">
<path d="M1.38519 11.471C1.57541 11.1995 6.10782 4.82357 11.8965 4.82357C17.6852 4.82357 22.2179 11.1995 22.4079 11.4707C22.588 11.7283 22.588 12.0776 22.4079 12.3351C22.2179 12.6066 17.6852 18.9825 11.8965 18.9825C6.10782 18.9825 1.57541 12.6066 1.38519 12.3353C1.20478 12.0778 1.20478 11.7283 1.38519 11.471ZM11.8965 17.5178C16.1605 17.5178 19.8536 13.286 20.9468 11.9025C19.855 10.5179 16.1697 6.28828 11.8965 6.28828C7.63274 6.28828 3.93991 10.5194 2.84622 11.9035C3.93804 13.2882 7.62338 17.5178 11.8965 17.5178Z" fill="#332D2D"/>
<path d="M11.8962 7.50887C14.2185 7.50887 16.108 9.48014 16.108 11.903C16.108 14.3259 14.2185 16.2972 11.8962 16.2972C9.57378 16.2972 7.68431 14.3259 7.68431 11.903C7.68431 9.48014 9.57378 7.50887 11.8962 7.50887ZM11.8962 14.8325C13.4445 14.8325 14.704 13.5184 14.704 11.903C14.704 10.2877 13.4444 8.97362 11.8962 8.97362C10.3479 8.97362 9.08828 10.2877 9.08828 11.903C9.08828 13.5184 10.3478 14.8325 11.8962 14.8325Z" fill="#332D2D"/>
<path fill-rule="evenodd" clip-rule="evenodd" d="M19.4113 7.8447C17.5131 6.20144 14.8767 4.56274 11.8965 4.56274C8.91636 4.56274 6.28002 6.20144 4.38178 7.84474C2.47908 9.49189 1.28451 11.1727 1.18336 11.317C0.938675 11.6661 0.938766 12.1401 1.18335 12.4893C1.28443 12.6334 2.47907 14.3142 4.38179 15.9614C6.28002 17.6046 8.91636 19.2433 11.8965 19.2433C14.8767 19.2433 17.5131 17.6046 19.4113 15.9614C21.3141 14.3142 22.5086 12.6334 22.6098 12.4889C22.854 12.1398 22.854 11.6661 22.6098 11.3169C22.5088 11.1727 21.3141 9.49182 19.4113 7.8447ZM22.206 12.1813C22.322 12.0154 22.322 11.7904 22.2059 11.6245L22.206 12.1813ZM22.2059 11.6245C22.1161 11.4963 20.9496 9.85413 19.0921 8.24615C17.2293 6.63365 14.7051 5.08439 11.8965 5.08439C9.08799 5.08439 6.56377 6.63365 4.70107 8.24618C2.84283 9.85484 1.67609 11.4978 1.58701 11.6249C1.47093 11.7904 1.47081 12.0156 1.58702 12.1814C1.67677 12.3094 2.84338 13.9517 4.70107 15.5599C6.56377 17.1724 9.08799 18.7217 11.8965 18.7217C14.7051 18.7217 17.2293 17.1724 19.0921 15.5599C20.9501 13.9515 22.1168 12.3088 22.206 12.1813M20.6213 11.9024C20.0341 12.6274 18.9141 13.8973 17.4619 15.0194C15.8882 16.2354 13.9514 17.257 11.8965 17.257C9.83697 17.257 7.89977 16.2358 6.3272 15.0203C4.87603 13.8987 3.7581 12.6291 3.17174 11.9037C3.75915 11.1784 4.87921 9.9085 6.33138 8.78644C7.90504 7.57051 9.84174 6.5491 11.8965 6.5491C13.9561 6.5491 15.8933 7.57023 17.4659 8.78574C18.917 9.9074 20.035 11.177 20.6213 11.9024ZM17.7635 8.36659C16.1522 7.12113 14.1101 6.02746 11.8965 6.02746C9.68752 6.02746 7.64592 7.12159 6.03379 8.36724C4.41825 9.61554 3.20694 11.037 2.65332 11.7376L2.52236 11.9034L2.65316 12.0692C3.20586 12.7702 4.41487 14.1914 6.02955 15.4395C7.64089 16.6849 9.68294 17.7786 11.8965 17.7786C14.1056 17.7786 16.1474 16.6843 17.7595 15.4386C19.3751 14.1902 20.5863 12.7687 21.1397 12.0685L21.2707 11.9027L21.1399 11.7368C20.5872 11.0359 19.3782 9.61464 17.7635 8.36659ZM16.358 11.903C16.358 9.33609 14.3566 7.24805 11.8962 7.24805C9.43571 7.24805 7.43431 9.33609 7.43431 11.903C7.43431 14.47 9.43571 16.558 11.8962 16.558C14.3566 16.558 16.358 14.47 16.358 11.903ZM11.8962 7.76969C14.0805 7.76969 15.858 9.62419 15.858 11.903C15.858 14.1819 14.0805 16.0364 11.8962 16.0364C9.71186 16.0364 7.93431 14.1819 7.93431 11.903C7.93431 9.62419 9.71186 7.76969 11.8962 7.76969ZM11.8962 9.23444C13.3064 9.23444 14.454 10.4318 14.454 11.903C14.454 13.3743 13.3064 14.5716 11.8962 14.5716C10.4859 14.5716 9.33828 13.3743 9.33828 11.903C9.33828 10.4318 10.4859 9.23444 11.8962 9.23444ZM14.954 11.903C14.954 10.1437 13.5825 8.7128 11.8962 8.7128C10.2098 8.7128 8.83828 10.1437 8.83828 11.903C8.83828 13.6624 10.2098 15.0933 11.8962 15.0933C13.5826 15.0933 14.954 13.6624 14.954 11.903Z" fill="#332D2D"/>
</g>
</svg>
