<svg width="31" height="31" viewBox="0 0 31 31" fill="none" xmlns="http://www.w3.org/2000/svg">
<path d="M11.5 19.5L11.1582 20.4398C11.4928 20.5615 11.8668 20.4961 12.1403 20.2681L11.5 19.5ZM1.96194 16.0314L1.64304 15.0836C1.24029 15.2191 0.967163 15.5944 0.962018 16.0193C0.956872 16.4442 1.22083 16.8259 1.62018 16.9712L1.96194 16.0314ZM11.5013 19.4989L12.1803 20.233C12.5784 19.8648 12.6105 19.2465 12.2527 18.839C11.8949 18.4316 11.2775 18.3836 10.861 18.7308L11.5013 19.4989ZM11.5001 19.5L10.8211 18.7659C10.5445 19.0217 10.4352 19.4112 10.5383 19.7735L11.5001 19.5ZM14.2907 29.3131L13.3288 29.5866C13.4449 29.9949 13.8061 30.2854 14.2298 30.3113C14.6534 30.3371 15.0473 30.0927 15.2122 29.7016L14.2907 29.3131ZM22.8522 9.00289L22.1603 8.28085C22.0618 8.37523 21.9837 8.48875 21.9307 8.61445L22.8522 9.00289ZM22.8531 9.00201L23.5449 9.72404C23.883 9.40011 23.9511 8.88497 23.7087 8.48437C23.4663 8.08376 22.9784 7.90496 22.5346 8.05408L22.8531 9.00201ZM22.8525 9.00222L21.9313 8.613C21.7782 8.97529 21.8517 9.39366 22.1191 9.68208C22.3865 9.97051 22.7981 10.0754 23.1709 9.95015L22.8525 9.00222ZM22.8526 9.00191L23.7737 9.39113C23.9571 8.95714 23.8127 8.45402 23.427 8.18337C23.0414 7.91272 22.5191 7.94797 22.1734 8.26798L22.8526 9.00191ZM22.8521 9.00234L23.171 9.95012C23.3049 9.90508 23.4277 9.83219 23.5314 9.73626L22.8521 9.00234ZM11.8418 18.5602L2.30371 15.0916L1.62018 16.9712L11.1582 20.4398L11.8418 18.5602ZM10.861 18.7308L10.8597 18.7319L12.1403 20.2681L12.1416 20.267L10.861 18.7308ZM10.8223 18.7648L10.8211 18.7659L12.1792 20.2341L12.1803 20.233L10.8223 18.7648ZM10.5383 19.7735L13.3288 29.5866L15.2525 29.0396L12.462 19.2265L10.5383 19.7735ZM15.2122 29.7016L23.7737 9.39132L21.9307 8.61445L13.3692 28.9247L15.2122 29.7016ZM22.1612 8.27998L22.1603 8.28085L23.544 9.72492L23.5449 9.72404L22.1612 8.27998ZM23.1709 9.95015L23.1716 9.94994L22.5346 8.05408L22.534 8.0543L23.1709 9.95015ZM23.7736 9.39145L23.7737 9.39113L21.9314 8.61268L21.9313 8.613L23.7736 9.39145ZM22.1734 8.26798L22.1729 8.26841L23.5314 9.73626L23.5318 9.73583L22.1734 8.26798ZM2.28085 16.9792L23.171 9.95012L22.5332 8.05455L1.64304 15.0836L2.28085 16.9792Z" fill="#332D2D"/>
</svg>
