<?xml version="1.0" encoding="utf-8"?>
<!-- Generator: Adobe Illustrator 24.0.1, SVG Export Plug-In . SVG Version: 6.00 Build 0)  -->
<svg version="1.1" id="Слой_1" xmlns="http://www.w3.org/2000/svg" xmlns:xlink="http://www.w3.org/1999/xlink" x="0px" y="0px"
	 viewBox="0 0 300 300" style="enable-background:new 0 0 300 300;" xml:space="preserve">
<style type="text/css">
	.st0{fill:#FE8687;stroke:#FE8687;stroke-width:14;stroke-miterlimit:10;}
</style>
<g id="Добавить_избранное">
</g>
<path class="st0" d="M151.9,73.9c-4.2-5.9-18.2-24-43.3-30.2c-17.4-4.3-31.4-0.7-34.1,0C49.7,50.4,37.1,70,33.9,75.2
	c-11.4,18.3-16.5,44.7-6.6,65.6c3,6.3,8.1,12.1,18.4,23.6c6.4,7.2,11.7,12.2,28.3,27.6c12.6,11.6,18.8,17.4,25,23
	c12.3,11.2,30.2,28,52.9,51.7c20.2-20,37.2-35.8,49.1-46.7c15.3-13.9,26.9-24,44-41.2c31-31.1,36.1-41.6,38-52.5
	c3.1-17.2-2.1-31.9-3.9-36.7c-3.1-8.3-9.7-21.8-23.6-32.8c-5-4-19.4-15-40.7-15.7c-18.3-0.6-31.6,6.8-38,10.5
	C164.1,58.9,156.2,68.1,151.9,73.9z"/>
</svg>
