<?xml version="1.0" encoding="utf-8"?>
<!-- Generator: Adobe Illustrator 24.0.1, SVG Export Plug-In . SVG Version: 6.00 Build 0)  -->
<svg version="1.1" id="Слой_1" xmlns="http://www.w3.org/2000/svg" xmlns:xlink="http://www.w3.org/1999/xlink" x="0px" y="0px"
	 viewBox="0 0 300 300" style="enable-background:new 0 0 300 300;" xml:space="preserve">
<style type="text/css">
	.st0{fill:#FE8687;}
</style>
<g>
	<path class="st0" d="M128.76,20.52c58.87,0,106.76,46.53,106.76,103.73c0,28.23-11.47,54.62-32.29,74.32
		c-20.04,18.96-46.49,29.4-74.47,29.4C69.89,227.98,22,181.44,22,124.25S69.89,20.52,128.76,20.52 M128.76,11.52
		C64.83,11.52,13,61.99,13,124.25s51.83,112.73,115.76,112.73c31.36,0,59.81-12.14,80.66-31.87c21.65-20.48,35.11-49.14,35.11-80.86
		C244.53,61.99,192.7,11.52,128.76,11.52L128.76,11.52z"/>
</g>
<g>
	<g>
		<path class="st0" d="M203.98,208.53c2.62,2.55,5.23,5.1,7.85,7.65c6.28,6.12,12.57,12.24,18.85,18.36
			c7.57,7.37,15.13,14.74,22.7,22.11c6.54,6.37,13.09,12.75,19.63,19.12c3.2,3.11,6.34,6.3,9.6,9.35c0.05,0.04,0.09,0.09,0.14,0.13
			c2.25,2.19,6.27,2.41,8.49,0c2.17-2.37,2.4-6.15,0-8.49c-2.62-2.55-5.23-5.1-7.85-7.65c-6.28-6.12-12.57-12.24-18.85-18.36
			c-7.57-7.37-15.13-14.74-22.7-22.11c-6.54-6.37-13.09-12.75-19.63-19.12c-3.2-3.11-6.34-6.3-9.6-9.35
			c-0.05-0.04-0.09-0.09-0.14-0.13c-2.25-2.19-6.27-2.41-8.49,0C201.81,202.42,201.58,206.19,203.98,208.53L203.98,208.53z"/>
	</g>
</g>
</svg>
