<svg width="25" height="27" viewBox="0 0 25 27" fill="none" xmlns="http://www.w3.org/2000/svg">
<path fill-rule="evenodd" clip-rule="evenodd" d="M10.5 2C5.80558 2 2 5.80558 2 10.5C2 15.1944 5.80558 19 10.5 19C15.1944 19 19 15.1944 19 10.5C19 5.80558 15.1944 2 10.5 2ZM0 10.5C0 4.70101 4.70101 0 10.5 0C16.299 0 21 4.70101 21 10.5C21 16.299 16.299 21 10.5 21C4.70101 21 0 16.299 0 10.5Z" fill="#332D2D"/>
<path fill-rule="evenodd" clip-rule="evenodd" d="M15.7256 17.7016C16.1364 17.3323 16.7686 17.3659 17.1378 17.7766L23.9295 25.3313C24.2987 25.742 24.265 26.3743 23.8543 26.7435C23.4435 27.1128 22.8112 27.0793 22.442 26.6686L15.6504 19.1138C15.2812 18.7031 15.3149 18.0709 15.7256 17.7016Z" fill="#332D2D"/>
</svg>
