<svg width="32" height="29" viewBox="0 0 32 29" fill="none" xmlns="http://www.w3.org/2000/svg">
<path fill-rule="evenodd" clip-rule="evenodd" d="M15.9999 2.92257C12.5358 -0.234576 8.14449 -0.71384 4.80255 0.906662C1.17564 2.66534 -1.00867 6.79477 0.46707 12.0695C0.762965 13.1271 1.53938 14.3751 2.48463 15.6358C3.45105 16.9247 4.67435 18.3301 5.96998 19.7185C8.56279 22.4968 11.4982 25.2632 13.3766 26.9839C14.8679 28.35 17.132 28.35 18.6233 26.9839C20.5017 25.2632 23.4371 22.4968 26.0299 19.7185C27.3255 18.3301 28.5488 16.9247 29.5152 15.6358C30.4605 14.3751 31.2369 13.1271 31.5328 12.0695C33.0085 6.79477 30.8242 2.66534 27.1973 0.906662C23.8554 -0.71384 19.4641 -0.234576 15.9999 2.92257ZM5.67517 2.70625C2.97982 4.01323 1.15931 7.12068 2.39311 11.5306C2.58155 12.2042 3.1573 13.199 4.08479 14.436C4.99112 15.6448 6.16114 16.9919 7.43217 18.3539C9.97267 21.0762 12.8639 23.802 14.7276 25.5092C15.4543 26.1749 16.5455 26.1749 17.2723 25.5092C19.1359 23.802 22.0272 21.0762 24.5677 18.3539C25.8387 16.9919 27.0087 15.6448 27.9151 14.436C28.8426 13.199 29.4183 12.2042 29.6067 11.5306C30.8405 7.12068 29.02 4.01323 26.3247 2.70625C23.5838 1.37722 19.7307 1.80794 16.7296 5.01032C16.5405 5.21206 16.2764 5.32652 15.9999 5.32652C15.7235 5.32652 15.4593 5.21206 15.2703 5.01032C12.2692 1.80794 8.41603 1.37722 5.67517 2.70625Z" fill="#332D2D"/>
</svg>
