<svg width="20" height="22" viewBox="0 0 20 22" fill="none" xmlns="http://www.w3.org/2000/svg">
<path fill-rule="evenodd" clip-rule="evenodd" d="M9.99935 2.66664C8.28113 2.66664 6.88824 4.05953 6.88824 5.77775H13.1105C13.1105 4.05953 11.7176 2.66664 9.99935 2.66664ZM5.33269 5.77775C5.33269 3.20042 7.42202 1.11108 9.99935 1.11108C12.5767 1.11108 14.666 3.20042 14.666 5.77775H16.2216C16.6018 5.77775 16.9263 6.05263 16.9888 6.42766L19.3221 20.4277C19.3597 20.6532 19.2961 20.8838 19.1484 21.0583C19.0006 21.2327 18.7835 21.3333 18.5549 21.3333H1.4438C1.21517 21.3333 0.99812 21.2327 0.850339 21.0583C0.702559 20.8838 0.639018 20.6532 0.676604 20.4277L3.00994 6.42766C3.07244 6.05263 3.39692 5.77775 3.77713 5.77775H5.33269ZM4.43601 7.33331L2.36193 19.7778H17.6368L15.5627 7.33331H4.43601Z" fill="#332D2D" stroke="#332D2D" stroke-width="0.5" stroke-linejoin="round"/>
</svg>
