<svg width="34" height="29" viewBox="0 0 34 29" fill="none" xmlns="http://www.w3.org/2000/svg">
<path fill-rule="evenodd" clip-rule="evenodd" d="M5.38472 11.9999L7.59921 24.5224C7.85264 25.9554 9.09805 26.9999 10.5534 26.9999H23.4466C24.9019 26.9999 26.1474 25.9554 26.4008 24.5224L28.6153 11.9999L28.3518 11.9999C28.2404 12.0197 28.1273 12.0194 28.0175 11.9999L6.1765 11.9999C6.06685 12.0193 5.95383 12.0196 5.84252 11.9999H5.38472ZM30.6463 11.9999L28.3702 24.8706C27.9479 27.2591 25.8722 28.9999 23.4466 28.9999H10.5534C8.12784 28.9999 6.05215 27.2591 5.62977 24.8706L3.35368 11.9999H1C0.447715 11.9999 0 11.5522 0 10.9999C0 10.4477 0.447715 9.99995 1 9.99995H3H5.4701L11.287 1.41362C11.5967 0.956382 12.2105 0.848206 12.6579 1.172C13.1054 1.4958 13.2169 2.12896 12.9072 2.5862L7.88468 9.99995L26.3095 9.99995L21.287 2.58623C20.9772 2.12899 21.0888 1.49583 21.5362 1.17204C21.9836 0.848237 22.5974 0.956412 22.9072 1.41365L28.7241 9.99995L31 9.99995L33 9.99995C33.5523 9.99995 34 10.4477 34 11C34 11.5522 33.5523 12 33 12L30.6463 11.9999ZM11 22.9999V15.9999C11 15.4477 11.4477 14.9999 12 14.9999C12.5523 14.9999 13 15.4477 13 15.9999V22.9999C13 23.5522 12.5523 23.9999 12 23.9999C11.4477 23.9999 11 23.5522 11 22.9999ZM18 22.9999V15.9999C18 15.4477 17.5523 14.9999 17 14.9999C16.4477 14.9999 16 15.4477 16 15.9999V22.9999C16 23.5522 16.4477 23.9999 17 23.9999C17.5523 23.9999 18 23.5522 18 22.9999ZM21 22.9999V15.9999C21 15.4477 21.4477 14.9999 22 14.9999C22.5523 14.9999 23 15.4477 23 15.9999V22.9999C23 23.5522 22.5523 23.9999 22 23.9999C21.4477 23.9999 21 23.5522 21 22.9999Z" fill="#332D2D"/>
</svg>
