<?xml version="1.0" encoding="utf-8"?>
<!-- Generator: Adobe Illustrator 24.0.1, SVG Export Plug-In . SVG Version: 6.00 Build 0)  -->
<svg version="1.1" xmlns="http://www.w3.org/2000/svg" xmlns:xlink="http://www.w3.org/1999/xlink" x="0px" y="0px"
	 viewBox="0 0 300 300" style="enable-background:new 0 0 300 300;" xml:space="preserve">
<style type="text/css">
	.st0{opacity:0.24;}
	.st1{fill:none;stroke:#FE8687;stroke-width:6;stroke-miterlimit:10;}
	.st2{fill:#FE8687;}
</style>
<g id="Слой_1" class="st0">
</g>
<g id="Слой_3">
	<path class="st1" d="M264.5,126.5L242,223c0,6.6-5.4,12-12,12H71c-6.6,0-12-5.4-12-12l-22.5-96.5H264.5z"/>
	<g>
		<g>
			<path class="st2" d="M89.13,126.48c14.24-19.22,28.48-38.44,42.72-57.67c2.88-3.88-3.63-7.63-6.48-3.79
				c-14.24,19.22-28.48,38.44-42.72,57.67C79.78,126.57,86.28,130.32,89.13,126.48L89.13,126.48z"/>
		</g>
	</g>
	<g>
		<g>
			<path class="st2" d="M220.85,122.69c-14.24-19.22-28.48-38.44-42.72-57.67c-2.84-3.84-9.35-0.1-6.48,3.79
				c14.24,19.22,28.48,38.44,42.72,57.67C217.21,130.31,223.73,126.58,220.85,122.69L220.85,122.69z"/>
		</g>
	</g>
	<g>
		<g>
			<path class="st2" d="M105.75,154c0,16.33,0,32.67,0,49c0,4.83,7.5,4.83,7.5,0c0-16.33,0-32.67,0-49
				C113.25,149.17,105.75,149.17,105.75,154L105.75,154z"/>
		</g>
	</g>
	<g>
		<g>
			<path class="st2" d="M146.75,154c0,16.33,0,32.67,0,49c0,4.83,7.5,4.83,7.5,0c0-16.33,0-32.67,0-49
				C154.25,149.17,146.75,149.17,146.75,154L146.75,154z"/>
		</g>
	</g>
	<g>
		<g>
			<path class="st2" d="M181.75,154c0,16.33,0,32.67,0,49c0,4.83,7.5,4.83,7.5,0c0-16.33,0-32.67,0-49
				C189.25,149.17,181.75,149.17,181.75,154L181.75,154z"/>
		</g>
	</g>
</g>
<g id="Слой_2">
</g>
</svg>
