<svg width="36" height="36" viewBox="0 0 36 36" fill="none" xmlns="http://www.w3.org/2000/svg">
<mask id="path-1-inside-1" fill="white">
<path d="M29 26.7299C29 32.293 24.0751 31.9973 18 31.9973C11.9249 31.9973 7 32.293 7 26.7299C7 21.1667 11.9249 18 18 18C24.0751 18 29 21.1667 29 26.7299Z"/>
</mask>
<path d="M27 26.7299C27 27.8291 26.7588 28.397 26.5261 28.7126C26.295 29.0258 25.9073 29.3142 25.1821 29.5406C24.4327 29.7746 23.4501 29.902 22.1918 29.9586C20.9348 30.0151 19.5589 29.9973 18 29.9973V33.9973C19.4786 33.9973 20.9966 34.0164 22.3716 33.9545C23.7454 33.8927 25.1331 33.7463 26.3742 33.3589C27.6396 32.9638 28.8629 32.283 29.745 31.0871C30.6256 29.8934 31 28.4122 31 26.7299H27ZM18 29.9973C16.4411 29.9973 15.0652 30.0151 13.8082 29.9586C12.5499 29.902 11.5673 29.7746 10.8179 29.5406C10.0927 29.3142 9.70499 29.0258 9.47392 28.7126C9.24116 28.397 9 27.8291 9 26.7299H5C5 28.4122 5.37445 29.8934 6.25495 31.0871C7.13714 32.283 8.36035 32.9638 9.6258 33.3589C10.8669 33.7463 12.2546 33.8927 13.6284 33.9545C15.0034 34.0164 16.5214 33.9973 18 33.9973V29.9973ZM9 26.7299C9 24.6133 9.90554 23.0115 11.4188 21.881C12.9851 20.711 15.284 20 18 20V16C14.6408 16 11.4398 16.8724 9.02486 18.6765C6.55689 20.5202 5 23.2833 5 26.7299H9ZM18 20C20.716 20 23.0149 20.711 24.5812 21.881C26.0945 23.0115 27 24.6133 27 26.7299H31C31 23.2833 29.4431 20.5202 26.9751 18.6765C24.5602 16.8724 21.3592 16 18 16V20Z" fill="#F07777" mask="url(#path-1-inside-1)"/>
<path d="M23 9.5C23 13.3096 20.5647 16 18 16C15.4353 16 13 13.3096 13 9.5C13 7.6513 13.5948 6.29074 14.4713 5.39686C15.3505 4.5003 16.5841 4 18 4C19.4159 4 20.6495 4.5003 21.5287 5.39686C22.4052 6.29074 23 7.6513 23 9.5Z" stroke="#F07777" stroke-width="2"/>
</svg>
