<svg width="24" height="26" viewBox="0 0 24 26" fill="none" xmlns="http://www.w3.org/2000/svg">
<path fill-rule="evenodd" clip-rule="evenodd" d="M12 2C9.79087 2 8.00001 3.79086 8.00001 6H16C16 3.79086 14.2091 2 12 2ZM6.00001 6C6.00001 2.68629 8.6863 0 12 0C15.3137 0 18 2.68629 18 6H20C20.4888 6 20.906 6.35341 20.9864 6.8356L23.9864 24.8356C24.0347 25.1256 23.953 25.4221 23.763 25.6464C23.573 25.8707 23.294 26 23 26H1.00001C0.706055 26 0.426991 25.8707 0.236988 25.6464C0.0469841 25.4221 -0.0347118 25.1256 0.0136136 24.8356L3.01361 6.8356C3.09398 6.35341 3.51117 6 4.00001 6H6.00001ZM4.84713 8L2.18047 24H21.8195L19.1529 8H4.84713Z" fill="#F07777"/>
</svg>
