<svg width="26" height="26" viewBox="0 0 26 26" fill="none" xmlns="http://www.w3.org/2000/svg">
<mask id="path-1-inside-1" fill="white">
<path d="M20.9436 19.3049C20.9436 23.3227 17.3867 23.1091 12.9991 23.1091C8.61154 23.1091 5.05469 23.3227 5.05469 19.3049C5.05469 15.2871 8.61154 13 12.9991 13C17.3867 13 20.9436 15.2871 20.9436 19.3049Z"/>
</mask>
<path d="M18.9436 19.3049C18.9436 20.0178 18.7879 20.3011 18.7098 20.4071C18.6333 20.5107 18.4694 20.6645 18.0207 20.8046C17.5477 20.9522 16.8943 21.0416 16.0016 21.0818C15.1101 21.1219 14.1362 21.1091 12.9991 21.1091V25.1091C14.0559 25.1091 15.1719 25.1231 16.1813 25.0777C17.1896 25.0324 18.2481 24.924 19.2127 24.6228C20.2017 24.3141 21.2012 23.7679 21.9287 22.7816C22.6546 21.7975 22.9436 20.6009 22.9436 19.3049H18.9436ZM12.9991 21.1091C11.8621 21.1091 10.8881 21.1219 9.99668 21.0818C9.10399 21.0416 8.45057 20.9522 7.97759 20.8046C7.5289 20.6645 7.36494 20.5107 7.28849 20.4071C7.21035 20.3011 7.05469 20.0178 7.05469 19.3049H3.05469C3.05469 20.6009 3.34363 21.7975 4.06952 22.7816C4.79708 23.7679 5.79656 24.3141 6.78554 24.6228C7.75021 24.924 8.80868 25.0324 9.81692 25.0777C10.8264 25.1231 11.9424 25.1091 12.9991 25.1091V21.1091ZM7.05469 19.3049C7.05469 17.961 7.61822 16.9654 8.57853 16.248C9.59184 15.4911 11.1269 15 12.9991 15V11C10.4837 11 8.04661 11.6525 6.18459 13.0435C4.26958 14.4741 3.05469 16.6309 3.05469 19.3049H7.05469ZM12.9991 15C14.8713 15 16.4064 15.4911 17.4197 16.248C18.38 16.9654 18.9436 17.961 18.9436 19.3049H22.9436C22.9436 16.6309 21.7287 14.4741 19.8137 13.0435C17.9517 11.6525 15.5145 11 12.9991 11V15Z" fill="black" mask="url(#path-1-inside-1)"/>
<path d="M16.3327 6.86107C16.3327 9.52009 14.6436 11.2777 12.9993 11.2777C11.3551 11.2777 9.66602 9.52009 9.66602 6.86107C9.66602 5.58766 10.0742 4.6785 10.6492 4.09218C11.2268 3.50319 12.0437 3.16663 12.9993 3.16663C13.955 3.16663 14.7719 3.50319 15.3495 4.09218C15.9245 4.6785 16.3327 5.58766 16.3327 6.86107Z" stroke="black" stroke-width="2"/>
</svg>
