<?xml version="1.0" encoding="utf-8"?>
<!-- Generator: Adobe Illustrator 24.0.1, SVG Export Plug-In . SVG Version: 6.00 Build 0)  -->
<svg version="1.1" id="Слой_1" xmlns="http://www.w3.org/2000/svg" xmlns:xlink="http://www.w3.org/1999/xlink" x="0px" y="0px"
	 viewBox="0 0 300 300" style="enable-background:new 0 0 300 300;" xml:space="preserve">
<style type="text/css">
	.st0{fill:#020202;}
</style>
<g>
	<g>
		<path class="st0" d="M251,150c0,17.73,0,35.46,0,53.19c0,8.86,0.38,15.76-2.29,23.46c-0.53,1.53-0.29,1.02-1.4,3.16
			c-0.8,1.54-1.68,3.05-2.64,4.5c-1.65,2.5-4.02,5.08-7.14,7.73c-4.32,3.67-10.72,6.6-17.62,7.7c1.63-0.26-1.17,0.12-1.53,0.14
			c-0.92,0.07-1.83,0.1-2.75,0.12c-0.29,0.01-0.57,0.01-0.86,0.01c-0.5,0.01-1.01,0-1.52,0c-2.42,0-4.83,0-7.25,0
			c-8.67,0-17.35,0-26.02,0c-22.49,0-44.98,0-67.47,0c-7.32,0-14.64,0-21.96,0c-8.04,0-14.1-0.76-20.53-4.3
			c-6.3-3.47-10.58-7.63-14.09-13.61c-3.43-5.84-4.86-11.45-4.95-18.16c-0.05-4.03,0-8.07,0-12.1c0-37.99-0.06-75.97,0-113.96
			c0-2.43-0.02-4.88,0.31-7.3c-0.21,1.48,0.18-0.71,0.21-0.81c0.23-1.09,0.48-2.17,0.78-3.25c0.24-0.85,0.51-1.69,0.78-2.54
			c0.1-0.32,1.08-2.88,0.47-1.42c1.16-2.76,4.14-7.54,5-8.6c7.72-9.55,17.79-13.9,29.36-13.96c18.82-0.09,37.65,0,56.47,0
			c1.87,0,3.75,0,5.62,0c15.44,0,15.47-24,0-24c-18.58,0-37.16,0-55.75,0c-11.43,0-22.2,0.99-32.81,5.82
			c-16.17,7.37-28.77,22.95-32.78,40.25C26.99,79.26,27,86.39,27,93.68c0,9.11,0,18.22,0,27.33c0,23.42,0,46.85,0,70.27
			c0,19.04-1.51,38.36,9.6,55.14c10.53,15.9,27.36,25.77,46.33,27.41c4.97,0.43,10.06,0.18,15.04,0.18c38.75,0,77.5,0.18,116.24,0
			c33.28-0.16,60.44-26.89,60.79-60.24c0.21-19.18,0-38.37,0-57.54c0-2.07,0-4.14,0-6.21C275,134.56,251,134.53,251,150L251,150z"/>
	</g>
</g>
<path d="M212.88,66.41c-31.07-3.84-54.97,1.24-68.83,5.38c-12.9,3.85-25.99,7.76-39.25,18.82c-24.29,20.26-29.83,48.35-31.19,55.92
	c-8.06,45.04,17.68,82.18,25.81,84.96c3.34,1.14,5.38,0,5.38,0c3.3-1.85,3.23-7.71,3.23-9.68c-0.06-33.06,0.02-54.13,8.6-67.75
	c7.99-12.68,22.77-17.88,28.5-19.9c4.28-1.51,9.08-2.65,24.2-3.76c10.4-0.76,24.68-1.43,41.94-1.08
	C211.81,108.35,212.34,87.38,212.88,66.41z"/>
<g>
	<path d="M209.61,32.16c3.66-0.26,7.4,1.03,10.15,3.84l49.77,50.91c4.96,5.08,4.87,13.29-0.21,18.25l-50.91,49.77
		c-2.26,2.21-5.15,3.42-8.1,3.63L209.61,32.16z"/>
</g>
</svg>
