<?xml version="1.0" encoding="utf-8"?>
<!-- Generator: Adobe Illustrator 24.0.1, SVG Export Plug-In . SVG Version: 6.00 Build 0)  -->
<svg version="1.1" id="Слой_1" xmlns="http://www.w3.org/2000/svg" xmlns:xlink="http://www.w3.org/1999/xlink" x="0px" y="0px"
	 viewBox="0 0 300 300" style="enable-background:new 0 0 300 300;" xml:space="preserve">
<style type="text/css">
	.st0{fill:none;stroke:#FE8687;stroke-width:14;stroke-miterlimit:10;}
</style>
<g id="Добавить_избранное">
</g>
<path class="st0" d="M151.9,73.87c-4.2-5.91-18.19-23.95-43.28-30.16c-17.44-4.32-31.39-0.73-34.1,0
	C49.68,50.43,37.09,70,33.87,75.18c-11.4,18.33-16.52,44.69-6.56,65.57c3.01,6.3,8.11,12.08,18.36,23.61
	c6.4,7.2,11.68,12.24,28.33,27.64c12.55,11.6,18.82,17.41,25,23c12.34,11.17,30.17,27.98,52.9,51.66
	c20.2-19.98,37.2-35.81,49.1-46.66c15.28-13.93,26.94-24.04,44.02-41.21c30.96-31.14,36.1-41.6,38.03-52.46
	c3.07-17.21-2.15-31.87-3.93-36.72c-3.07-8.32-9.7-21.78-23.61-32.79c-5-3.96-19.4-15.03-40.66-15.74
	c-18.28-0.61-31.55,6.77-38.03,10.49C164.1,58.87,156.16,68.08,151.9,73.87z"/>
</svg>
